<svg width="31" height="35" fill="none" xmlns="http://www.w3.org/2000/svg"><path d="M19.898 6.646c.934-.883 1.623-1.85 2.068-2.902.43-1.051.645-2.005.645-2.86 0-.056-.004-.127-.011-.21a2.3 2.3 0 01-.012-.211 1.97 1.97 0 01-.055-.232A1.972 1.972 0 0022.477 0c-2.608.575-4.461 1.613-5.558 3.113-1.112 1.514-1.69 3.316-1.734 5.406.993-.085 1.763-.203 2.312-.357.8-.253 1.6-.758 2.401-1.516z" fill="#fff"/><path d="M27.457 22.906c-1.022-1.388-1.534-2.951-1.534-4.691 0-1.584.482-3.035 1.445-4.354.52-.715 1.364-1.542 2.535-2.482-.77-.897-1.541-1.598-2.312-2.104-1.394-.91-2.972-1.367-4.736-1.367-1.052 0-2.334.24-3.846.716-1.453.477-2.513.714-3.18.714-.503 0-1.526-.21-3.068-.63-1.556-.421-2.867-.632-3.935-.632-2.549 0-4.654 1.01-6.314 3.03C.838 13.153 0 15.776 0 18.972c0 3.394 1.09 6.92 3.268 10.58C5.477 33.185 7.708 35 9.96 35c.756 0 1.734-.238 2.935-.715 1.2-.463 2.253-.694 3.157-.694.963 0 2.082.224 3.357.673 1.348.448 2.386.672 3.112.672 1.897 0 3.802-1.373 5.714-4.122 1.245-1.752 2.157-3.506 2.735-5.258-1.32-.378-2.49-1.262-3.513-2.65z" fill="#fff"/></svg>