<svg width="29" height="33" fill="none" xmlns="http://www.w3.org/2000/svg"><path d="M27.102 13.693l-5.456-3.151-7.475 5.585 7.475 5.585 5.475-3.162a2.815 2.815 0 001.363-2.423c0-.998-.51-1.905-1.382-2.434z" fill="#FF9100"/><path d="M16.064 16.127c-.008.01-6.61 8.498-6.614 8.505l-8.6 6.772A2.871 2.871 0 010 29.363V2.845C0 2.05.321 1.333.85.804l8.6 6.819 6.614 8.504z" fill="#25D9F8"/><path d="M16.06 16.127l-1.89 2.438v-4.876l1.89 2.438z" fill="#00C0F1"/><path d="M21.658 10.533l-5.594 5.594L.85.804c.189-.17.378-.303.586-.435a2.798 2.798 0 012.873.057l9.865 5.798 7.484 4.309z" fill="#7FE881"/><path d="M21.655 10.533l-5.594 5.594-1.89-1.89V6.224l7.484 4.309z" fill="#5BC980"/><path d="M21.658 21.721l-7.484 4.31L4.29 31.8a2.88 2.88 0 01-1.456.415c-.472 0-.945-.132-1.398-.378a4.266 4.266 0 01-.586-.434l15.214-15.277 5.594 5.594z" fill="#FF637B"/><path d="M21.655 21.721l-7.484 4.31v-8.014l1.89-1.89 5.594 5.594z" fill="#E63950"/></svg>