<svg width="31" height="35" viewBox="0 0 31 35" fill="none" xmlns="http://www.w3.org/2000/svg">
<path d="M19.8982 6.64641C20.832 5.76332 21.5213 4.79608 21.966 3.74432C22.3958 2.69255 22.6108 1.73932 22.6108 0.883535C22.6108 0.827841 22.607 0.756934 22.5996 0.67317C22.5918 0.589405 22.5885 0.519708 22.5885 0.462804C22.5737 0.420731 22.5552 0.343586 22.5329 0.230988C22.5107 0.119218 22.4922 0.0420731 22.4774 0C19.8685 0.574957 18.016 1.61272 16.9192 3.11322C15.8075 4.62741 15.2294 6.42942 15.1849 8.51888C16.1776 8.43435 16.9484 8.31596 17.4973 8.16167C18.2977 7.90854 19.0977 7.40404 19.8982 6.64641Z" fill="white"/>
<path d="M27.4573 22.9058C26.4346 21.5183 25.9232 19.9547 25.9232 18.215C25.9232 16.6307 26.4045 15.1797 27.3683 13.8611C27.8872 13.1463 28.7321 12.3189 29.903 11.3789C29.1323 10.4818 28.3615 9.781 27.5908 9.27536C26.1974 8.36497 24.6188 7.90808 22.8553 7.90808C21.8029 7.90808 20.5208 8.14728 19.0088 8.62371C17.5562 9.1009 16.4964 9.3385 15.8298 9.3385C15.3258 9.3385 14.3031 9.12814 12.7615 8.70747C11.2052 8.28674 9.89378 8.07637 8.82648 8.07637C6.277 8.07637 4.17222 9.08607 2.51248 11.1058C0.837533 13.1533 6.10352e-05 15.7752 6.10352e-05 18.9722C6.10352e-05 22.3656 1.08949 25.8921 3.26848 29.5526C5.47666 33.1844 7.70739 35 9.96045 35C10.7164 35 11.6943 34.7616 12.8949 34.2852C14.0955 33.8224 15.1475 33.5911 16.0517 33.5911C17.0152 33.5911 18.1339 33.8155 19.409 34.2638C20.7574 34.7125 21.7951 34.9365 22.5214 34.9365C24.4182 34.9365 26.323 33.5626 28.2351 30.8144C29.4802 29.0618 30.3918 27.3085 30.9698 25.5559C29.6507 25.1777 28.4801 24.2942 27.4573 22.9058Z" fill="white"/>
</svg>
