<svg width="29" height="33" viewBox="0 0 29 33" fill="none" xmlns="http://www.w3.org/2000/svg">
<path d="M27.1021 13.6927L21.6461 10.5417L14.1709 16.1269L21.6459 21.7122L27.1206 18.5504C27.9742 18.0318 28.4836 17.1256 28.4836 16.1271C28.4836 15.1286 27.9741 14.2224 27.1021 13.6927Z" fill="#FF9100"/>
<path d="M16.0642 16.127C16.056 16.1376 9.45489 24.6247 9.44953 24.6316L0.850514 31.4037C0.32128 30.8745 6.10352e-05 30.1564 6.10352e-05 29.3625V2.84467C6.10352e-05 2.05098 0.32128 1.33276 0.850514 0.80365L9.44953 7.62251C9.45489 7.62938 16.056 16.1165 16.0642 16.127Z" fill="#25D9F8"/>
<path d="M16.0608 16.1271L14.1709 18.565V13.689L16.0608 16.1271Z" fill="#00C0F1"/>
<path d="M21.6578 10.5329L16.0637 16.1271L0.850037 0.803743C1.03896 0.63359 1.22802 0.501297 1.4359 0.369004C2.34299 -0.141204 3.42029 -0.122368 4.30861 0.425764L14.1738 6.22402L21.6578 10.5329Z" fill="#7FE881"/>
<path d="M21.6549 10.5329L16.0608 16.127L14.1709 14.2372V6.224L21.6549 10.5329Z" fill="#5BC980"/>
<path d="M21.6578 21.7211L14.1738 26.0301L4.28971 31.8006C3.83613 32.0651 3.34476 32.2163 2.83443 32.2163C2.36195 32.2163 1.88948 32.084 1.4359 31.8383C1.22802 31.706 1.03896 31.5738 0.850037 31.4037L16.0637 16.1271L21.6578 21.7211Z" fill="#FF637B"/>
<path d="M21.6549 21.7211L14.1709 26.0301V18.017L16.0608 16.1271L21.6549 21.7211Z" fill="#E63950"/>
</svg>
